<?xml version="1.0" standalone="no"?>
<!DOCTYPE svg PUBLIC "-//W3C//DTD SVG 20010904//EN"
 "http://www.w3.org/TR/2001/REC-SVG-20010904/DTD/svg10.dtd">
<svg version="1.0" xmlns="http://www.w3.org/2000/svg"
 width="512.000000pt" height="512.000000pt" viewBox="0 0 512.000000 512.000000"
 preserveAspectRatio="xMidYMid meet">
<metadata>
Created by potrace 1.11, written by Peter Selinger 2001-2013
</metadata>
<g transform="translate(0.000000,512.000000) scale(0.100000,-0.100000)"
fill="#000000" stroke="none">
<path d="M2375 5114 c-16 -2 -73 -9 -125 -15 -280 -32 -583 -124 -850 -260
-248 -126 -441 -268 -650 -478 -226 -227 -349 -398 -485 -676 -123 -249 -194
-476 -237 -750 -31 -200 -31 -550 0 -750 67 -430 234 -827 496 -1175 90 -120
303 -340 421 -434 372 -299 779 -476 1270 -552 153 -24 537 -24 690 0 416 64
759 196 1089 418 280 188 548 464 731 753 72 114 193 360 240 489 174 475 200
1018 71 1517 -46 181 -92 303 -181 484 -136 278 -259 449 -485 676 -85 86
-191 183 -235 216 -381 286 -769 450 -1227 519 -98 14 -469 27 -533 18z m433
-2031 l-3 -158 -157 -3 -157 -3 -3 -437 -3 -437 -27 -51 c-122 -232 -451 -229
-565 4 -37 75 -39 191 -6 263 67 147 236 222 386 172 l57 -20 0 414 0 413 240
0 241 0 -3 -157z m312 -433 l0 -120 120 0 120 0 0 -80 0 -80 -120 0 -120 0 0
-120 0 -120 -75 0 -75 0 0 120 0 120 -120 0 -120 0 0 80 0 80 120 0 120 0 0
120 0 120 75 0 75 0 0 -120z"/>
</g>
</svg>
